<?xml version="1.0" encoding="UTF-8"?>
<!DOCTYPE svg PUBLIC "-//W3C//DTD SVG 1.1//EN" "http://www.w3.org/Graphics/SVG/1.1/DTD/svg11.dtd">
<svg xmlns="http://www.w3.org/2000/svg" version="1.1" width="128px" height="128px" style="shape-rendering:geometricPrecision; text-rendering:geometricPrecision; image-rendering:optimizeQuality; fill-rule:evenodd; clip-rule:evenodd" xmlns:xlink="http://www.w3.org/1999/xlink">
<g><path style="opacity:0.895" fill="#f70e02" d="M 56.5,14.5 C 81.9286,12.7901 100.429,23.1234 112,45.5C 119.767,70.4472 112.934,90.2805 91.5,105C 85.021,107.168 82.1877,105.001 83,98.5C 105.043,83.9959 110.043,64.9959 98,41.5C 84.5817,26.0189 68.0817,21.5189 48.5,28C 24.5463,40.4013 18.0463,58.9013 29,83.5C 34.5415,91.4133 39.7082,99.58 44.5,108C 24.2617,100.454 13.5951,85.621 12.5,63.5C 15.2596,36.41 29.9262,20.0766 56.5,14.5 Z"/></g>
<g><path style="opacity:0.903" fill="#f70e02" d="M 55.5,28.5 C 76.8218,25.5716 91.6552,33.9049 100,53.5C 103.728,72.3764 97.0609,86.043 80,94.5C 75.3486,92.8603 74.0153,89.8603 76,85.5C 90.2367,76.5553 93.57,64.5553 86,49.5C 72.6063,35.658 58.6063,34.9913 44,47.5C 38.3776,54.3214 36.7109,61.9881 39,70.5C 46.7886,84.5805 54.9553,98.4138 63.5,112C 59.4963,112.144 55.4963,111.811 51.5,111C 43.7257,100.632 36.559,89.799 30,78.5C 22.8404,53.8189 31.3404,37.1523 55.5,28.5 Z"/></g>
<g><path style="opacity:0.904" fill="#f60e02" d="M 63.5,41.5 C 82.7205,44.2801 89.5538,54.9468 84,73.5C 81.5336,77.9664 77.8669,80.9664 73,82.5C 68.4142,81.5922 66.7476,78.9255 68,74.5C 70.706,72.1294 73.0394,69.4628 75,66.5C 75.6744,56.1762 70.8411,51.6762 60.5,53C 52.8462,56.9627 51.0129,62.796 55,70.5C 63.3644,83.3668 71.5311,96.3668 79.5,109.5C 75.4202,111.533 71.2536,111.866 67,110.5C 58.1497,96.7981 49.8164,82.7981 42,68.5C 40.8478,52.8234 48.0144,43.8234 63.5,41.5 Z"/></g>
</svg>
